{
    "asset" : {
        "generator" : "Khronos glTF Blender I/O v1.0.5",
        "version" : "2.0"
    },
    "scene" : 0,
    "scenes" : [
        {
            "name" : "Scene",
            "nodes" : [
                0,
                1,
                2
            ]
        }
    ],
    "nodes" : [
        {
            "mesh" : 0,
            "name" : "Cube"
        },
        {
            "name" : "Lamp",
            "rotation" : [
                0.16907575726509094,
                0.7558803558349609,
                -0.27217137813568115,
                0.570947527885437
            ],
            "translation" : [
                4.076245307922363,
                5.903861999511719,
                -1.0054539442062378
            ]
        },
        {
            "name" : "Camera",
            "rotation" : [
                0.483536034822464,
                0.33687159419059753,
                -0.20870360732078552,
                0.7804827094078064
            ],
            "translation" : [
                7.481131553649902,
                5.34366512298584,
                6.5076398849487305
            ]
        }
    ],
    "materials" : [
        {
            "doubleSided" : true,
            "name" : "Cuerpo",
            "pbrMetallicRoughness" : {}
        },
        {
            "doubleSided" : true,
            "name" : "Panza",
            "pbrMetallicRoughness" : {}
        },
        {
            "doubleSided" : true,
            "name" : "Cresta",
            "pbrMetallicRoughness" : {}
        }
    ],
    "meshes" : [
        {
            "name" : "Cube",
            "primitives" : [
                {
                    "attributes" : {
                        "POSITION" : 0,
                        "NORMAL" : 1,
                        "TEXCOORD_0" : 2
                    },
                    "indices" : 3,
                    "material" : 0
                },
                {
                    "attributes" : {
                        "POSITION" : 4,
                        "NORMAL" : 5,
                        "TEXCOORD_0" : 6
                    },
                    "indices" : 7,
                    "material" : 0
                },
                {
                    "attributes" : {
                        "POSITION" : 8,
                        "NORMAL" : 9,
                        "TEXCOORD_0" : 10
                    },
                    "indices" : 11,
                    "material" : 0
                },
                {
                    "attributes" : {
                        "POSITION" : 12,
                        "NORMAL" : 13,
                        "TEXCOORD_0" : 14
                    },
                    "indices" : 15,
                    "material" : 0
                },
                {
                    "attributes" : {
                        "POSITION" : 16,
                        "NORMAL" : 17,
                        "TEXCOORD_0" : 18
                    },
                    "indices" : 19,
                    "material" : 1
                },
                {
                    "attributes" : {
                        "POSITION" : 20,
                        "NORMAL" : 21,
                        "TEXCOORD_0" : 22
                    },
                    "indices" : 23,
                    "material" : 2
                }
            ]
        }
    ],
    "accessors" : [
        {
            "bufferView" : 0,
            "componentType" : 5126,
            "count" : 65534,
            "max" : [
                2.9971625804901123,
                5.758010387420654,
                4.833481788635254
            ],
            "min" : [
                -0.792995035648346,
                -7.489334583282471,
                -3.252018690109253
            ],
            "type" : "VEC3"
        },
        {
            "bufferView" : 1,
            "componentType" : 5126,
            "count" : 65534,
            "type" : "VEC3"
        },
        {
            "bufferView" : 2,
            "componentType" : 5126,
            "count" : 65534,
            "type" : "VEC2"
        },
        {
            "bufferView" : 3,
            "componentType" : 5123,
            "count" : 98304,
            "type" : "SCALAR"
        },
        {
            "bufferView" : 4,
            "componentType" : 5126,
            "count" : 65532,
            "max" : [
                2.2205729484558105,
                5.758010387420654,
                4.796231746673584
            ],
            "min" : [
                -2.9971625804901123,
                -7.4893341064453125,
                -3.252018690109253
            ],
            "type" : "VEC3"
        },
        {
            "bufferView" : 5,
            "componentType" : 5126,
            "count" : 65532,
            "type" : "VEC3"
        },
        {
            "bufferView" : 6,
            "componentType" : 5126,
            "count" : 65532,
            "type" : "VEC2"
        },
        {
            "bufferView" : 7,
            "componentType" : 5123,
            "count" : 98298,
            "type" : "SCALAR"
        },
        {
            "bufferView" : 8,
            "componentType" : 5126,
            "count" : 5632,
            "max" : [
                0.135365828871727,
                2.36776065826416,
                4.8198981285095215
            ],
            "min" : [
                -2.477773904800415,
                -5.6533989906311035,
                -0.18366605043411255
            ],
            "type" : "VEC3"
        },
        {
            "bufferView" : 9,
            "componentType" : 5126,
            "count" : 5632,
            "type" : "VEC3"
        },
        {
            "bufferView" : 10,
            "componentType" : 5126,
            "count" : 5632,
            "type" : "VEC2"
        },
        {
            "bufferView" : 11,
            "componentType" : 5123,
            "count" : 8448,
            "type" : "SCALAR"
        },
        {
            "bufferView" : 12,
            "componentType" : 5126,
            "count" : 4,
            "max" : [
                2.0793404579162598,
                -5.364874839782715,
                0.008483659476041794
            ],
            "min" : [
                2.0405638217926025,
                -5.42092752456665,
                -0.030485745519399643
            ],
            "type" : "VEC3"
        },
        {
            "bufferView" : 13,
            "componentType" : 5126,
            "count" : 4,
            "type" : "VEC3"
        },
        {
            "bufferView" : 14,
            "componentType" : 5126,
            "count" : 4,
            "type" : "VEC2"
        },
        {
            "bufferView" : 15,
            "componentType" : 5123,
            "count" : 6,
            "type" : "SCALAR"
        },
        {
            "bufferView" : 16,
            "componentType" : 5126,
            "count" : 48640,
            "max" : [
                2.8803083896636963,
                3.842153549194336,
                2.0249691009521484
            ],
            "min" : [
                -2.880308151245117,
                -7.480488300323486,
                -3.1038405895233154
            ],
            "type" : "VEC3"
        },
        {
            "bufferView" : 17,
            "componentType" : 5126,
            "count" : 48640,
            "type" : "VEC3"
        },
        {
            "bufferView" : 18,
            "componentType" : 5126,
            "count" : 48640,
            "type" : "VEC2"
        },
        {
            "bufferView" : 19,
            "componentType" : 5123,
            "count" : 72960,
            "type" : "SCALAR"
        },
        {
            "bufferView" : 20,
            "componentType" : 5126,
            "count" : 40960,
            "max" : [
                4.123737812042236,
                6.739374160766602,
                3.1453964710235596
            ],
            "min" : [
                -4.123737812042236,
                3.1057801246643066,
                -0.3327558934688568
            ],
            "type" : "VEC3"
        },
        {
            "bufferView" : 21,
            "componentType" : 5126,
            "count" : 40960,
            "type" : "VEC3"
        },
        {
            "bufferView" : 22,
            "componentType" : 5126,
            "count" : 40960,
            "type" : "VEC2"
        },
        {
            "bufferView" : 23,
            "componentType" : 5123,
            "count" : 61440,
            "type" : "SCALAR"
        }
    ],
    "bufferViews" : [
        {
            "buffer" : 0,
            "byteLength" : 786408,
            "byteOffset" : 0
        },
        {
            "buffer" : 0,
            "byteLength" : 786408,
            "byteOffset" : 786408
        },
        {
            "buffer" : 0,
            "byteLength" : 524272,
            "byteOffset" : 1572816
        },
        {
            "buffer" : 0,
            "byteLength" : 196608,
            "byteOffset" : 2097088
        },
        {
            "buffer" : 0,
            "byteLength" : 786384,
            "byteOffset" : 2293696
        },
        {
            "buffer" : 0,
            "byteLength" : 786384,
            "byteOffset" : 3080080
        },
        {
            "buffer" : 0,
            "byteLength" : 524256,
            "byteOffset" : 3866464
        },
        {
            "buffer" : 0,
            "byteLength" : 196596,
            "byteOffset" : 4390720
        },
        {
            "buffer" : 0,
            "byteLength" : 67584,
            "byteOffset" : 4587316
        },
        {
            "buffer" : 0,
            "byteLength" : 67584,
            "byteOffset" : 4654900
        },
        {
            "buffer" : 0,
            "byteLength" : 45056,
            "byteOffset" : 4722484
        },
        {
            "buffer" : 0,
            "byteLength" : 16896,
            "byteOffset" : 4767540
        },
        {
            "buffer" : 0,
            "byteLength" : 48,
            "byteOffset" : 4784436
        },
        {
            "buffer" : 0,
            "byteLength" : 48,
            "byteOffset" : 4784484
        },
        {
            "buffer" : 0,
            "byteLength" : 32,
            "byteOffset" : 4784532
        },
        {
            "buffer" : 0,
            "byteLength" : 12,
            "byteOffset" : 4784564
        },
        {
            "buffer" : 0,
            "byteLength" : 583680,
            "byteOffset" : 4784576
        },
        {
            "buffer" : 0,
            "byteLength" : 583680,
            "byteOffset" : 5368256
        },
        {
            "buffer" : 0,
            "byteLength" : 389120,
            "byteOffset" : 5951936
        },
        {
            "buffer" : 0,
            "byteLength" : 145920,
            "byteOffset" : 6341056
        },
        {
            "buffer" : 0,
            "byteLength" : 491520,
            "byteOffset" : 6486976
        },
        {
            "buffer" : 0,
            "byteLength" : 491520,
            "byteOffset" : 6978496
        },
        {
            "buffer" : 0,
            "byteLength" : 327680,
            "byteOffset" : 7470016
        },
        {
            "buffer" : 0,
            "byteLength" : 122880,
            "byteOffset" : 7797696
        }
    ],
    "buffers" : [
        {
            "byteLength" : 7920576,
            "uri" : "axolotl.bin"
        }
    ]
}
